<svg width="75" height="75" viewBox="0 0 75 75" fill="none" xmlns="http://www.w3.org/2000/svg">
<path d="M39.454 1C41 1.26528 42.5741 1.44678 44.0919 1.82375C54.7452 4.42068 62.8124 13.6216 64.0211 24.4281C64.5692 29.3288 63.5994 33.9641 61.8988 38.5157C59.1723 45.8178 55.1387 52.4358 50.6975 58.8024C47.2823 63.7031 43.6 68.4082 39.6367 72.89C38.3296 74.37 36.8539 74.37 35.5609 72.89C28.4213 64.6944 21.9703 56.038 16.8686 46.4182C14.5496 42.0341 12.6242 37.5105 11.5701 32.6378C9.11056 21.3425 14.7885 9.40509 25.1466 4.07163C28.3229 2.43808 31.6679 1.4049 35.2377 1.1117C35.3923 1.09773 35.5609 1.04189 35.7155 1C36.9664 1 38.2031 1 39.454 1ZM50.9505 27.416C50.9364 20.086 44.9633 14.1382 37.5988 14.1242C30.2062 14.1103 24.205 20.086 24.205 27.4439C24.205 34.76 30.1921 40.7217 37.5566 40.7357C44.9493 40.7496 50.9645 34.7739 50.9505 27.416Z" fill="#FFC700"/>
</svg>
