<svg width="75" height="75" viewBox="0 0 75 75" fill="none" xmlns="http://www.w3.org/2000/svg">
<path d="M5 57.278C5 45.491 5 33.7041 5 21.9088C5.74706 20.755 6.48582 20.6388 7.54001 21.527C10.7607 24.2579 13.9813 26.9722 17.1854 29.7198C22.7468 34.5009 28.3 39.2987 33.8615 44.0799C35.1813 45.2171 36.692 45.7318 38.4517 45.4578C39.8628 45.2337 40.9087 44.412 41.9546 43.5155C50.5209 36.1528 59.1121 28.8067 67.6867 21.444C68.193 21.0123 68.7243 20.7716 69.3717 21.0788C70.0192 21.3859 70.152 21.9503 70.152 22.6144C70.1437 33.812 70.152 45.0013 70.1437 56.1989C70.1437 59.5109 67.8112 61.8434 64.4909 61.8434C46.5532 61.8517 28.6154 61.8434 10.6777 61.8434C10.5532 61.8434 10.4203 61.8434 10.2958 61.8351C7.95504 61.7687 5.92138 60.2164 5.24072 57.967C5.16601 57.7511 5.08301 57.5104 5 57.278Z" fill="#FFC700"/>
<path d="M37.5713 13.0104C46.5194 13.0104 55.4592 13.0187 64.4073 13.0021C66.109 13.0021 67.5616 13.5416 68.7154 14.8116C69.4873 15.6666 69.4458 16.4054 68.5577 17.1524C63.3947 21.5518 58.2067 25.9262 53.0603 30.3339C48.6028 34.1522 44.1703 38.0037 39.7294 41.8469C38.1689 43.1999 36.9653 43.1833 35.4048 41.8386C26.1246 33.8783 16.8279 25.9262 7.5394 17.9742C7.14927 17.6422 6.75084 17.3267 6.37731 16.9864C5.75476 16.3971 5.70495 15.6666 6.2611 15.0025C7.34018 13.7076 8.7347 13.027 10.4197 13.0104C12.8352 12.9938 15.2507 13.0021 17.6662 13.0021C24.2985 13.0104 30.9307 13.0104 37.5713 13.0104Z" fill="#FFC700"/>
</svg>
