<svg width="75" height="75" viewBox="0 0 75 75" fill="none" xmlns="http://www.w3.org/2000/svg">
<path d="M20.0011 7C21.7501 7.34198 22.9668 8.46293 24.1645 9.69788C26.1797 11.7688 28.2519 13.8017 30.305 15.8536C32.7575 18.3235 32.7575 21.4964 30.286 23.9662C29.9819 24.2702 29.6967 24.5932 29.4495 24.8592C24.3546 19.7484 19.3167 14.7137 14.2598 9.65988C15.2673 8.42494 16.5791 7.36098 18.3281 7C18.8794 7 19.4308 7 20.0011 7Z" fill="#FFC700"/>
<path d="M68.0202 56.5501C67.3738 58.963 66.6514 59.3619 65.2826 60.7109C60.2447 55.6761 55.1878 50.6223 50.1309 45.5686C51.1384 44.4856 52.2031 43.3457 53.857 43.0227C55.6631 42.6807 57.336 42.9657 58.6858 44.2576C61.3854 46.8605 64.0089 49.5394 66.6514 52.1993C67.4119 52.9782 67.735 53.9662 68.0202 54.9731C68.0202 55.5241 68.0202 56.0371 68.0202 56.5501Z" fill="#FFC700"/>
<path d="M47.3758 48.1902C52.4327 53.2629 57.4516 58.2597 62.4895 63.3135C60.8165 64.7574 58.9534 65.9544 56.8432 66.6953C49.1248 69.4122 42.1858 67.9873 36.3494 62.3065C28.3648 54.5359 20.5703 46.5942 12.6997 38.7096C8.7264 34.7198 6.80629 29.875 7.01541 24.2512C7.18651 19.9384 8.66937 16.1196 11.3879 12.7758C11.483 12.6618 11.5781 12.5668 11.6351 12.5098C16.673 17.5445 21.6919 22.5603 26.6538 27.5191C26.4256 28.2221 26.0834 28.906 25.9694 29.628C25.7793 30.8819 26.1975 31.9839 27.091 32.8769C32.0719 37.8546 37.0528 42.8514 42.0337 47.8292C43.3834 49.1781 45.3036 49.3871 46.9575 48.4372C47.1286 48.3422 47.2617 48.2662 47.3758 48.1902Z" fill="#FFC700"/>
</svg>
